<?xml version="1.0" encoding="UTF-8" standalone="no"?>
<!-- Created with Inkscape (http://www.inkscape.org/) -->

<svg
   xmlns:dc="http://purl.org/dc/elements/1.1/"
   xmlns:cc="http://creativecommons.org/ns#"
   xmlns:rdf="http://www.w3.org/1999/02/22-rdf-syntax-ns#"
   xmlns:svg="http://www.w3.org/2000/svg"
   xmlns="http://www.w3.org/2000/svg"
   xmlns:sodipodi="http://sodipodi.sourceforge.net/DTD/sodipodi-0.dtd"
   xmlns:inkscape="http://www.inkscape.org/namespaces/inkscape"
   width="43.520771mm"
   height="45.24382mm"
   viewBox="0 0 43.520771 45.24382"
   version="1.1"
   id="svg8"
   inkscape:version="0.92.3 (2405546, 2018-03-11)"
   sodipodi:docname="bip.svg">
  <defs
     id="defs2" />
  <sodipodi:namedview
     id="base"
     pagecolor="#ffffff"
     bordercolor="#666666"
     borderopacity="1.0"
     inkscape:pageopacity="0.0"
     inkscape:pageshadow="2"
     inkscape:zoom="1.979899"
     inkscape:cx="-75.574091"
     inkscape:cy="103.61396"
     inkscape:document-units="mm"
     inkscape:current-layer="layer1"
     showgrid="false"
     inkscape:window-width="1854"
     inkscape:window-height="1145"
     inkscape:window-x="66"
     inkscape:window-y="27"
     inkscape:window-maximized="1" />
  <metadata
     id="metadata5">
    <rdf:RDF>
      <cc:Work
         rdf:about="">
        <dc:format>image/svg+xml</dc:format>
        <dc:type
           rdf:resource="http://purl.org/dc/dcmitype/StillImage" />
        <dc:title></dc:title>
      </cc:Work>
    </rdf:RDF>
  </metadata>
  <g
     inkscape:label="Livello 1"
     inkscape:groupmode="layer"
     id="layer1"
     transform="translate(-111.03052,-31.301634)">
    <path
       style="fill:#000000;stroke-width:0.26458335"
       d="m 129.41992,76.282234 c -0.0894,-0.14474 -0.14105,-2.82853 -0.11466,-5.96398 0.0264,-3.13545 -0.015,-5.76378 -0.0919,-5.84072 -0.0769,-0.0769 -0.60085,0.0953 -1.16423,0.38268 -1.53965,0.78547 -4.07295,1.1949 -6.38189,1.03144 -3.87185,-0.27412 -7.00151,-1.80158 -8.9645,-4.37524 -1.59882,-2.09619 -1.67222,-2.72091 -1.67222,-14.23322 v -10.38073 l 3.37344,0.0716 3.37343,0.0716 0.1323,9.90636 c 0.14632,10.95709 0.0832,10.56646 1.93683,11.98032 2.5473,1.94292 6.90443,0.40497 7.47541,-2.63861 0.43157,-2.30045 -0.43305,-4.2119 -2.34681,-5.18823 -0.92827,-0.47357 -1.40121,-0.53596 -3.15272,-0.41591 l -2.06063,0.14124 v -2.87609 c 0,-3.47631 0.0412,-3.51827 3.43844,-3.49989 1.7506,0.009 2.66836,0.16609 4.1342,0.70555 1.03625,0.38136 1.92922,0.69346 1.98437,0.69355 0.0552,9e-5 0.059,-0.59522 0.009,-1.32292 l -0.0917,-1.32308 h 4.25887 4.25887 v 0.88195 c 0,1.11386 0.15623,1.26282 0.99145,0.94527 1.45446,-0.55299 4.47488,-0.79333 6.32061,-0.50295 6.33208,0.99622 10.31686,6.30407 9.33803,12.43856 -0.72068,4.51658 -3.71947,7.62816 -8.4095,8.72582 -1.41002,0.33 -4.95623,0.26328 -5.55121,-0.10444 -0.20567,-0.12711 -0.30813,-1.2064 -0.30813,-3.24584 0,-2.8069 0.0377,-3.03973 0.46302,-2.86276 0.90883,0.37811 2.9308,0.44929 3.87848,0.13652 3.01793,-0.996 4.21219,-4.46888 2.45162,-7.12928 -0.84838,-1.28199 -2.11473,-1.87451 -4.00623,-1.87451 -1.63838,0 -2.2759,0.24052 -3.38843,1.27841 -1.41,1.3154 -1.51513,2.28566 -1.51513,13.98315 v 10.6676 h -4.21772 c -2.51116,0 -4.28352,-0.10647 -4.38036,-0.26315 z m 2.11579,-34.73207 c -1.51132,-0.62195 -2.32717,-1.36893 -2.94556,-2.6969 -0.99043,-2.12695 -0.72084,-4.17704 0.77305,-5.87848 1.09532,-1.2475 2.17113,-1.67315 4.22888,-1.67315 1.3936,0 1.8797,0.12888 2.88078,0.76375 3.08621,1.95721 3.12106,6.72265 0.0647,8.84524 -1.25937,0.8746 -3.6789,1.18397 -5.00184,0.63954 z"
       id="path34"
       inkscape:connector-curvature="0" />
  </g>
</svg>
